# xmcd
#
# Track frame offsets:
#	225
#	14649
#	29417
#	45485
#	61995
#	71519
#	81401
#	98178
#	115237
#	128160
#	141325
#	158009
#	174967
#	187219
#	199457
#	211722
#	224164
#	238511
#
# Disc length: 3371 seconds
#
# Revision: 0
# Processed by: cddbd v1.5.2PL0 Copyright (c) Steve Scherf et al.
# Submitted via: EasyCDDAExtractor 10.0.2.1
#
DISCID=100d2812
DTITLE=The Daybreak Quartet - Daybreak Quartet Soundtracks Christmas
DYEAR=2006
DGENRE=Gospel
TTITLE0=Hark the Herald Angels Sing TRACK
TTITLE1=Hark the Herald Angels Sing DEMO
TTITLE2=The Glory of the Story TRACK
TTITLE3=The Glory of the Story DEMO
TTITLE4=Birthday of a Baby TRACK
TTITLE5=Birthday of a Baby DEMO
TTITLE6=Mary, Did You Know TRACK
TTITLE7=Mary, DId You Know DEMO
TTITLE8=The Angels Sang TRACK
TTITLE9=The Angels Sang DEMO
TTITLE10=We Are The Reason TRACK
TTITLE11=We Are The Reason DEMO
TTITLE12=Listen To The Christmas Bells TRACK
TTITLE13=Listen To The Christmas Bells DEMO
TTITLE14=I Heard The Bells TRACK
TTITLE15=I Heard The Bells DEMO
TTITLE16=Away In A Manger TRACK
TTITLE17=Away In A Manger DEMO
EXTD=
EXTT0=
EXTT1=
EXTT2=
EXTT3=
EXTT4=
EXTT5=
EXTT6=
EXTT7=
EXTT8=
EXTT9=
EXTT10=
EXTT11=
EXTT12=
EXTT13=
EXTT14=
EXTT15=
EXTT16=
EXTT17=
PLAYORDER=
